# xmcd CD database file
#
# Track frame offsets:
#	150
#	17710
#	35362
#	56867
#	89350
#	110860
#	162107
#
# Disc length: 2454 seconds
#
# Revision: 0
# Processed by: cddbd v1.4PL0 Copyright (c) Steve Scherf et al.
# Submitted via: CDex 1.50beta10
#
DISCID=57099407
DTITLE=Raul de Souza - Colors
DYEAR=1974
DGENRE=Jazz
TTITLE0=Nana
TTITLE1=Canto de ossanha
TTITLE2=Water buffalo
TTITLE3=Dr. honoris causa
TTITLE4=Festival
TTITLE5=Crystal silence
TTITLE6=Chants to burn
EXTD=YEAR: 1974
EXTT0=
EXTT1=
EXTT2=
EXTT3=
EXTT4=
EXTT5=
EXTT6=
PLAYORDER=
